# xmcd
#
# Track frame offsets:
#	150
#	17179
#	33677
#	51503
#	69158
#	87366
#	104222
#	123113
#	138426
#	156520
#
# Disc length: 2318 seconds
#
# Revision: 0
# Processed by: cddbd v1.5.2PL0 Copyright (c) Steve Scherf et al.
# Submitted via: audiograbber 1.83.01
#
DISCID=90090c0a
DTITLE=Tontxu - Corazón de mudanza
DYEAR=1998
DGENRE=Spanien Pop
TTITLE0=Qué fue aquello
TTITLE1=Treinta y tantos
TTITLE2=Temprana
TTITLE3=Madrid - Barcelona
TTITLE4=Corazón de mudanza
TTITLE5=Mientes (A dúo con Olga Cerpa)
TTITLE6=Aplausos
TTITLE7=Gila
TTITLE8=Todos dicen te quiero
TTITLE9=Copas en un bar
EXTD=
EXTT0=
EXTT1=
EXTT2=
EXTT3=
EXTT4=
EXTT5=
EXTT6=
EXTT7=
EXTT8=
EXTT9=
PLAYORDER=
